<?xml version="1.0" encoding="UTF-8" standalone="no"?>
<svg
   xmlns:dc="http://purl.org/dc/elements/1.1/"
   xmlns:cc="http://creativecommons.org/ns#"
   xmlns:rdf="http://www.w3.org/1999/02/22-rdf-syntax-ns#"
   xmlns:svg="http://www.w3.org/2000/svg"
   xmlns="http://www.w3.org/2000/svg"
   xmlns:sodipodi="http://sodipodi.sourceforge.net/DTD/sodipodi-0.dtd"
   xmlns:inkscape="http://www.inkscape.org/namespaces/inkscape"
   inkscape:version="1.0 (4035a4fb49, 2020-05-01)"
   sodipodi:docname="pornhub.svg"
   id="svg6"
   version="1.1"
   height="240"
   width="240"
   viewBox="0 0 240 240">
  <metadata
     id="metadata12">
    <rdf:RDF>
      <cc:Work
         rdf:about="">
        <dc:format>image/svg+xml</dc:format>
        <dc:type
           rdf:resource="http://purl.org/dc/dcmitype/StillImage" />
        <dc:title></dc:title>
      </cc:Work>
    </rdf:RDF>
  </metadata>
  <defs
     id="defs10" />
  <sodipodi:namedview
     inkscape:current-layer="svg6"
     inkscape:window-maximized="0"
     inkscape:window-y="28"
     inkscape:window-x="45"
     inkscape:cy="155.91625"
     inkscape:cx="91.181621"
     inkscape:zoom="2.4184552"
     inkscape:pagecheckerboard="true"
     showgrid="false"
     id="namedview8"
     inkscape:window-height="740"
     inkscape:window-width="1321"
     inkscape:pageshadow="2"
     inkscape:pageopacity="0"
     guidetolerance="10"
     gridtolerance="10"
     objecttolerance="10"
     borderopacity="1"
     bordercolor="#666666"
     pagecolor="#ffffff" />
  <g
     transform="translate(20,91.977898)"
     id="g839">
    <path
       d="m 195.8277,0 h -81.32612 c -2.52594,0.28191249 -3.92422,1.826793 -4.17231,4.6571944 V 51.387009 c 0.24809,2.819125 1.6351,4.364006 4.14976,4.657195 h 81.37122 c 2.51466,-0.293189 3.90167,-1.83807 4.14975,-4.657195 V 4.6571944 C 199.75192,1.8380695 198.35363,0.28191249 195.8277,0"
       fill="#f7971d"
       id="path2"
       style="stroke-width:1.12765" />
    <path
       d="m 191.75688,21.763645 c -1.37573,-1.522328 -3.23636,-2.503383 -5.25485,-2.954443 -0.58638,-0.146595 -1.24042,-0.25936 -1.98466,-0.293189 -2.67253,-0.22553 -6.08931,0.823184 -7.69058,2.165088 l 0.3834,-10.9382052 h -6.49526 V 43.617501 h 6.03293 v -1.871899 c 1.38701,1.12765 3.60848,2.424448 7.02526,2.424448 h 0.64276 c 2.85295,0 5.2774,-1.12765 7.27334,-3.38295 1.99594,-2.277853 2.98827,-5.502932 2.98827,-9.69779 0,-4.05954 -0.96978,-7.160577 -2.93189,-9.325665 m -5.23229,15.448804 c -0.99234,1.217862 -2.22147,1.826793 -3.65359,1.826793 -1.86062,0 -3.3604,-0.857014 -4.47677,-2.593595 -0.81191,-1.206585 -1.21786,-3.089761 -1.21786,-5.63825 0,-2.458277 0.51872,-4.28507 1.54488,-5.502932 1.01488,-1.206585 2.32296,-1.804239 3.87911,-1.804239 1.57871,0 2.88679,0.608931 3.90167,1.849345 1.01489,1.240415 1.52233,3.270185 1.52233,6.066757 0,2.638701 -0.50744,4.566983 -1.51105,5.784845 m -26.25169,-7.780785 c 0,3.495715 -0.15787,5.717185 -0.48489,6.619305 -0.3383,0.90212 -0.93595,1.657646 -1.80424,2.2553 -0.90212,0.620208 -1.88318,0.90212 -2.98827,0.90212 -0.96978,0 -1.77041,-0.22553 -2.4019,-0.67659 -0.63148,-0.45106 -1.07127,-1.059991 -1.30807,-1.838069 -0.22553,-0.789355 -0.36085,-2.886784 -0.36085,-6.34867 V 19.057285 h -6.49526 v 15.561569 c 0,2.300406 0.29319,4.104646 0.87956,5.41272 0.58638,1.308074 1.53361,2.334236 2.84168,3.044655 1.30808,0.732973 2.7853,1.093821 4.44294,1.093821 0.24808,0 0.48489,0 0.73297,-0.02255 4.14976,-0.112765 6.31484,-1.995941 7.39739,-3.236356 v 2.70636 h 6.03293 V 19.057285 h -6.49527 z m -21.19982,-7.949932 c -0.59766,-0.868291 -1.49978,-1.57871 -2.70636,-2.142535 -1.08255,-0.48489 -2.28913,-0.755526 -3.60848,-0.811908 h -0.0677 c -2.74019,-0.146595 -6.2359,0.654037 -7.871,2.22147 V 9.7428958 h -6.49526 V 43.617501 h 6.49526 V 31.326116 c 0,-2.063599 0.1917,-3.631033 0.58638,-4.679747 0.39468,-1.059991 1.01489,-1.849346 1.86062,-2.368065 0.84574,-0.529995 1.80424,-0.789355 2.88679,-0.789355 0.94722,0 1.73658,0.202977 2.36806,0.608931 0.60893,0.405954 1.04872,0.958502 1.2968,1.657645 0.24808,0.67659 0.37212,2.322959 0.37212,4.894001 v 12.967975 h 6.48399 V 29.206134 c 0,-2.187641 -0.11276,-3.811457 -0.33829,-4.848894 -0.22553,-1.059991 -0.63149,-2.02977 -1.24042,-2.875508 m -36.61479,1.477222 c -0.24809,-1.059991 -0.69915,-2.02977 -1.33063,-2.864231 -0.64276,-0.845738 -1.57871,-1.533604 -2.841678,-2.074876 -1.262968,-0.541272 -2.616148,-0.811908 -4.127199,-0.811908 -2.728913,-0.157871 -7.171854,0.879567 -8.502481,3.010825 V 17.78304 h -6.348669 v 25.823185 h 6.833559 V 31.912494 c 0,-2.886784 0.157871,-4.848895 0.507442,-5.931439 0.338295,-1.071267 0.992332,-1.917004 1.917005,-2.593594 0.958503,-0.631484 2.02977,-0.958503 3.202526,-0.958503 0.90212,0 1.691475,0.22553 2.368065,0.67659 0.642761,0.45106 1.12765,1.082544 1.409563,1.917005 0.293189,0.789355 0.45106,2.593595 0.45106,5.390167 v 13.170952 h 6.822277 V 27.559765 c 0,-1.99594 -0.13531,-3.529544 -0.3834,-4.600811 M 69.914299,17.298151 c -2.02977,0.259359 -3.946775,1.894452 -4.792513,2.93189 V 17.78304 h -6.348669 v 25.823185 h 6.833559 v -7.972486 c 0,-4.397835 0.1917,-7.284619 0.563825,-8.660352 0.383401,-1.375733 0.90212,-2.322958 1.57871,-2.852954 0.654037,-0.541272 1.465945,-0.789355 2.424447,-0.789355 0.992332,0 2.052323,0.360848 3.202526,1.105097 l 2.119982,-5.953992 c -1.443392,-0.857014 -2.93189,-1.285521 -4.5106,-1.285521 -0.360848,0 -0.721696,0.03383 -1.071267,0.09021 m -27.852955,-0.09021 c -2.537212,0 -4.826342,0.563825 -6.878665,1.668922 -2.02977,1.12765 -3.631033,2.74019 -4.73613,4.848895 -1.12765,2.142535 -1.691475,4.330176 -1.691475,6.608029 0,2.965719 0.563825,5.480379 1.691475,7.555255 1.105097,2.052323 2.74019,3.60848 4.894001,4.691024 2.142535,1.071267 4.397835,1.601263 6.7659,1.601263 3.83401,0 6.99143,-1.285521 9.517366,-3.83401 2.525936,-2.548489 3.777627,-5.818674 3.777627,-9.73162 0,-3.867839 -1.240415,-7.070365 -3.743798,-9.607577 -2.480829,-2.537213 -5.683355,-3.800181 -9.585024,-3.800181 m 4.5106,19.373027 c -1.217862,1.35318 -2.70636,2.02977 -4.488047,2.02977 -1.781687,0 -3.270185,-0.67659 -4.5106,-2.02977 -1.206586,-1.35318 -1.80424,-3.326568 -1.80424,-5.886333 0,-2.559766 0.597654,-4.5106 1.80424,-5.886333 1.240415,-1.35318 2.728913,-2.02977 4.5106,-2.02977 1.781687,0 3.270185,0.67659 4.488047,2.02977 1.206585,1.35318 1.80424,3.304014 1.80424,5.841227 0,2.593595 -0.597655,4.566982 -1.80424,5.931439 M 20.105999,8.5024808 c -1.330627,-0.360848 -4.172305,-0.541272 -8.57014,-0.541272 H 0 V 43.594948 H 7.1944069 V 30.15336 h 4.6910241 c 3.270185,0 5.751015,-0.169147 7.465043,-0.507442 1.262968,-0.281913 2.503383,-0.845738 3.721245,-1.691475 1.217862,-0.845738 2.255299,-2.02977 3.044654,-3.518268 0.789355,-1.488498 1.184033,-3.326567 1.184033,-5.525485 0,-2.819125 -0.67659,-5.142084 -2.052323,-6.935047 -1.387009,-1.80424 -3.089761,-2.9544432 -5.130807,-3.4957152 M 19.079838,21.786198 c -0.529996,0.789355 -1.274245,1.375733 -2.232747,1.747857 -0.958503,0.372125 -2.852955,0.563825 -5.694633,0.563825 H 7.2056834 V 13.98286 h 3.4957146 c 2.593595,0 4.307623,0.09021 5.164637,0.259359 1.172756,0.202977 2.142535,0.732973 2.898061,1.57871 0.755525,0.834461 1.12765,1.917005 1.12765,3.202526 0,1.059991 -0.25936,1.984664 -0.789355,2.774019"
       id="path4"
       style="stroke-width:1.12765" />
  </g>
</svg>
