<?xml version="1.0" encoding="UTF-8" standalone="no"?>
<svg
   xmlns:dc="http://purl.org/dc/elements/1.1/"
   xmlns:cc="http://creativecommons.org/ns#"
   xmlns:rdf="http://www.w3.org/1999/02/22-rdf-syntax-ns#"
   xmlns:svg="http://www.w3.org/2000/svg"
   xmlns="http://www.w3.org/2000/svg"
   xmlns:sodipodi="http://sodipodi.sourceforge.net/DTD/sodipodi-0.dtd"
   xmlns:inkscape="http://www.inkscape.org/namespaces/inkscape"
   inkscape:version="1.0 (4035a4fb49, 2020-05-01)"
   height="240"
   width="240"
   sodipodi:docname="stackoverflow.svg"
   xml:space="preserve"
   viewBox="0 0 240 240"
   version="1.1"
   id="Layer_1"
   enable-background="new 0 0 512 512"><metadata
     id="metadata27"><rdf:RDF><cc:Work
         rdf:about=""><dc:format>image/svg+xml</dc:format><dc:type
           rdf:resource="http://purl.org/dc/dcmitype/StillImage" /><dc:title></dc:title></cc:Work></rdf:RDF></metadata><defs
     id="defs25" /><sodipodi:namedview
     inkscape:current-layer="Layer_1"
     inkscape:window-maximized="0"
     inkscape:window-y="28"
     inkscape:window-x="45"
     inkscape:cy="256"
     inkscape:cx="256"
     inkscape:zoom="1.125"
     inkscape:pagecheckerboard="true"
     showgrid="false"
     id="namedview23"
     inkscape:window-height="740"
     inkscape:window-width="1321"
     inkscape:pageshadow="2"
     inkscape:pageopacity="0"
     guidetolerance="10"
     gridtolerance="10"
     objecttolerance="10"
     borderopacity="1"
     bordercolor="#666666"
     pagecolor="#ffffff" /><g
     transform="matrix(0.39863127,0,0,0.39863127,17.55102,17.535177)"
     id="g20"><path
       id="path2"
       fill="#bcbbbb"
       d="M 257.1,507.9 C 119.7,507.4 7.9,396.5 8.4,255.9 8.8,117.6 119.8,4.6 260.2,6.2 c 134.6,1.5 246.3,111.2 245.4,252.6 -0.8,138 -111,248.5 -248.5,249.1 z m -0.2,-482 C 131.1,25.6 29.4,128.2 28.1,254.2 26.8,385.4 131.3,486.9 254.3,488.2 382.4,489.5 485,385.7 485.9,259.1 486.9,128.5 382.2,25.4 256.9,25.9 Z" /><path
       id="path4"
       fill="#bcbbbb"
       d="m 147.1,430 c 0,-46 -0.1,-92 -0.2,-138 0,-3.4 1.3,-4.3 4.4,-4.1 4.3,0.2 8.7,0.3 13,0 4.5,-0.4 5.9,1 5.9,5.7 -0.2,35.7 -0.1,71.3 -0.1,107 0,1.2 0.1,2.3 0,3.5 -0.2,2.7 1.1,4 3.8,3.9 1,-0.1 2,0 3,0 55.7,0 111.3,-0.1 167,0.1 5.1,0 6.4,-1.3 6.3,-6.4 -0.2,-36 0,-72 -0.2,-108 0,-4.5 1,-6.3 5.8,-5.9 4.3,0.4 8.7,0.4 13,0 4.3,-0.4 5.2,1.3 5.2,5.4 -0.1,44 -0.1,88 -0.1,132 0,1.6 0.5,3.4 -0.8,4.8 -75.3,0 -150.7,0 -226,0 z" /><path
       id="path6"
       fill="#f38127"
       d="m 197.5,305.1 c 31.1,3 61.5,5.9 91.8,8.7 12.3,1.2 24.5,2.3 36.8,3.2 3.2,0.2 4.4,1.1 3.9,4.5 -0.9,7.3 -1.5,14.6 -2.1,21.9 -0.2,2.7 -1.4,3.1 -3.9,2.9 -24.9,-2.4 -49.7,-4.6 -74.6,-6.8 -17.4,-1.6 -34.8,-3.1 -52.2,-4.7 -6.5,-0.6 -6.5,-0.5 -5.9,-7 0.6,-6.1 1.4,-12.2 1.7,-18.4 0.3,-3.7 1.5,-5.3 4.5,-4.3 z" /><path
       id="path8"
       fill="#f38127"
       d="m 208.9,244.1 c 3.9,1.1 8.3,2.2 12.6,3.4 37.5,10.1 75.1,20.3 112.7,30.3 4.4,1.2 5,2.7 3.7,6.8 -2.1,6.3 -3.6,12.8 -5.2,19.2 -0.7,2.9 -2.1,3.6 -5,2.8 -32.1,-8.7 -64.2,-17.3 -96.3,-26 -9.6,-2.6 -19.2,-5.2 -28.9,-7.8 -2.5,-0.7 -3.5,-1.5 -2.7,-4.4 2.1,-7 3.8,-14.1 5.7,-21.2 0.6,-1.4 0.5,-3.5 3.4,-3.1 z" /><path
       id="path10"
       fill="#f38127"
       d="m 392.7,223.1 c -1.9,0.5 -2.3,-1.1 -2.7,-3.2 -6.9,-39.8 -13.9,-79.6 -20.8,-119.5 -0.2,-1.3 -0.2,-2.7 -0.4,-4 -1.2,-8.5 -1.2,-8.5 7.5,-9.9 5.6,-0.9 11.2,-1.8 16.7,-3 2.8,-0.6 3.4,0.4 3.9,2.8 7.3,42.5 14.6,84.9 22,127.3 0.6,3.4 0.1,5.1 -3.8,5.5 -7.3,1.1 -14.5,2.6 -22.4,4 z" /><path
       id="path12"
       fill="#f38127"
       d="m 239.3,176.8 c 0.9,0.4 2,0.9 3,1.5 37.1,21.9 74.1,43.8 111.3,65.6 2.6,1.5 2.6,2.8 1.2,5 -3.7,6.1 -7.5,12.2 -10.9,18.5 -1.8,3.3 -3.5,3 -6.2,1.4 -20.7,-12.3 -41.5,-24.5 -62.3,-36.8 -16.2,-9.5 -32.3,-19.2 -48.6,-28.6 -2.9,-1.7 -3.3,-2.9 -1.5,-5.7 3.9,-6.2 7.5,-12.6 11.2,-18.8 0.7,-1.1 1.2,-2.3 2.8,-2.1 z" /><path
       id="path14"
       fill="#f38127"
       d="m 307.7,112.2 c 1.7,0.4 1.9,1.7 2.6,2.6 19.4,28.4 38.8,56.9 58.2,85.3 5.1,7.4 10,14.9 15.2,22.3 1.5,2.1 1.5,3.2 -0.8,4.7 -6.1,4 -12.2,8.1 -18.1,12.4 -2.6,1.9 -4.1,1.6 -5.9,-1.1 -12.6,-18.8 -25.4,-37.4 -38.2,-56.1 -11.3,-16.6 -22.6,-33.3 -34.1,-49.8 -2.3,-3.3 -1.9,-4.9 1.4,-7 5.9,-3.7 11.6,-7.8 17.4,-11.7 0.9,-0.6 1.7,-1.2 2.3,-1.6 z" /><path
       id="path16"
       fill="#f38026"
       d="m 258.3,384.2 c -21.1,0 -42.3,-0.1 -63.4,0.1 -3.7,0 -5.4,-0.6 -5.1,-4.8 0.4,-6.6 0.2,-13.3 0,-20 -0.1,-3.1 0.5,-4.4 4.1,-4.4 43.1,0.1 86.2,0.1 129.3,0 3.3,0 3.9,1.2 3.8,4.1 -0.2,7 -0.2,14 0,21 0.1,3.4 -1.1,4.2 -4.3,4.1 -21.4,-0.2 -42.9,-0.2 -64.4,-0.1 0,-0.1 0,-0.1 0,0 z" /><path
       id="path18"
       fill="#dabea8"
       d="m 147.1,430 c 75.3,0 150.7,0 226,0 -1.4,1.7 -3.4,1 -5.1,1 -71.8,0 -143.5,0 -215.3,0 -1.9,0 -4.1,0.9 -5.6,-1 z" /></g></svg>
